<svg xmlns="http://www.w3.org/2000/svg" width="40" height="40" viewBox="0 0 40 40">
    <g fill="none" fill-rule="evenodd">
        <circle cx="20" cy="20" r="20" stroke="#ECECEC"/>
        <path fill="#9A9A9A" d="M24.515 14.158a1.083 1.083 0 1 0 0 2.166 1.083 1.083 0 0 0 0-2.166M20 22.978A2.982 2.982 0 0 1 17.023 20 2.98 2.98 0 0 1 20 17.022 2.981 2.981 0 0 1 22.978 20 2.982 2.982 0 0 1 20 22.979m0-7.633A4.659 4.659 0 0 0 15.348 20 4.659 4.659 0 0 0 20 24.654 4.659 4.659 0 0 0 24.653 20 4.659 4.659 0 0 0 20 15.346m7.305 7.197c-.009.56-.03 1.158-.136 1.724-.287 1.541-1.161 2.478-2.673 2.865-.695.178-1.435.183-2.217.188h-.008c-.38.003-.77.003-1.193.003-1.062 0-2.143-.007-3.19-.015l-.703-.005c-.518-.004-1.125-.028-1.71-.177-1.146-.291-1.925-.932-2.383-1.961-.29-.654-.355-1.376-.38-1.997a8.683 8.683 0 0 0-.027-.384l-.01-.123V17.4c.011-.053.024-.127.027-.213.018-.616.043-1.17.176-1.698.293-1.167.948-1.956 2.002-2.411.64-.278 1.349-.34 1.958-.365.134-.006.261-.017.384-.026l.122-.01h5.265c.043.009.098.017.161.023.179.015.355.026.525.036.34.02.658.039.954.094.774.145 1.405.44 1.875.874.471.438.81 1.045 1.004 1.806.174.682.18 1.41.188 2.177v.067c.015 1.61.011 3.221-.011 4.79m1.687-4.805l-.001-.066c-.008-.836-.016-1.7-.24-2.578-.549-2.148-2-3.5-4.194-3.912a9.031 9.031 0 0 0-1.163-.12 15.204 15.204 0 0 1-.467-.032l-.023-.005c-.023-.003-.045-.008-.068-.012L22.764 11H17.28l-.03.002-.167.014c-.111.009-.216.018-.314.022-.719.03-1.658.113-2.555.5-1.543.668-2.54 1.86-2.961 3.54-.17.678-.205 1.341-.225 2.015l-.016.075-.013.073v5.483l.002.03.014.168c.01.11.018.215.022.314.03.734.117 1.693.524 2.61.67 1.507 1.848 2.485 3.5 2.904.764.194 1.529.224 2.11.229l.703.005c1.05.007 2.135.016 3.203.016.426 0 .82-.002 1.204-.004h.008c.85-.006 1.728-.012 2.62-.24 2.148-.55 3.499-1.996 3.906-4.182.128-.692.154-1.403.163-2.008.022-1.581.027-3.205.013-4.828"/>
    </g>
</svg>
