<svg xmlns="http://www.w3.org/2000/svg" width="40" height="40" viewBox="0 0 40 40">
    <g fill="none" fill-rule="evenodd">
        <circle cx="20" cy="20" r="20" stroke="#ECECEC"/>
        <path fill="#9A9A9A" d="M26.997 16.214a3.537 3.537 0 0 0 1.533-1.956 6.939 6.939 0 0 1-2.214.858A3.462 3.462 0 0 0 23.77 14c-1.926 0-3.488 1.582-3.488 3.534 0 .277.03.547.09.806-2.898-.148-5.469-1.555-7.188-3.693-.3.522-.473 1.129-.473 1.777 0 1.226.616 2.307 1.551 2.941a3.44 3.44 0 0 1-1.58-.441v.044c0 1.712 1.203 3.14 2.798 3.465a3.441 3.441 0 0 1-1.575.061c.444 1.404 1.732 2.426 3.258 2.454A6.94 6.94 0 0 1 12 26.412 9.774 9.774 0 0 0 17.346 28c6.416 0 9.924-5.386 9.924-10.056 0-.153-.003-.306-.01-.458A7.131 7.131 0 0 0 29 15.657a6.905 6.905 0 0 1-2.003.557z"/>
    </g>
</svg>
